<svg xmlns="http://www.w3.org/2000/svg" version="1.1" xmlns:xlink="http://www.w3.org/1999/xlink" xmlns:svgjs="http://svgjs.dev/svgjs" width="1920" height="1080" preserveAspectRatio="none" viewBox="0 0 1920 1080"><g mask="url(&quot;#SvgjsMask1030&quot;)" fill="none"><rect width="1920" height="1080" x="0" y="0" fill="rgba(153, 185, 165, 1)"></rect><path d="M29 1080L1109 0L1824.5 0L744.5 1080z" fill="url(&quot;#SvgjsLinearGradient1031&quot;)"></path><path d="M716.6 1080L1796.6 0L2722.1 0L1642.1 1080z" fill="url(&quot;#SvgjsLinearGradient1031&quot;)"></path><path d="M1896 1080L816 0L648 0L1728 1080z" fill="url(&quot;#SvgjsLinearGradient1032&quot;)"></path><path d="M1177.4 1080L97.40000000000009 0L-424.5999999999999 0L655.4000000000001 1080z" fill="url(&quot;#SvgjsLinearGradient1032&quot;)"></path><path d="M973.029581104665 1080L1920 133.029581104665L1920 1080z" fill="url(&quot;#SvgjsLinearGradient1031&quot;)"></path><path d="M0 1080L946.970418895335 1080L 0 133.029581104665z" fill="url(&quot;#SvgjsLinearGradient1032&quot;)"></path></g><defs><mask id="SvgjsMask1030"><rect width="1920" height="1080" fill="#ffffff"></rect></mask><linearGradient x1="0%" y1="100%" x2="100%" y2="0%" id="SvgjsLinearGradient1031"><stop stop-color="rgba(78, 176, 117, 1)" offset="0"></stop><stop stop-opacity="0" stop-color="rgba(78, 176, 117, 1)" offset="0.66"></stop></linearGradient><linearGradient x1="100%" y1="100%" x2="0%" y2="0%" id="SvgjsLinearGradient1032"><stop stop-color="rgba(78, 176, 117, 1)" offset="0"></stop><stop stop-opacity="0" stop-color="rgba(78, 176, 117, 1)" offset="0.66"></stop></linearGradient></defs></svg>